name Walk5.mot
datacolumns 19
datarows 17
range 1.56000000 1.64000000
endheader

                time	   L_ground_force_vx	   L_ground_force_vy	   L_ground_force_vz	   L_ground_force_px	   L_ground_force_py	   L_ground_force_pz	   R_ground_force_vx	   R_ground_force_vy	   R_ground_force_vz	   R_ground_force_px	   R_ground_force_py	   R_ground_force_pz	   L_ground_torque_x	   L_ground_torque_y	   L_ground_torque_z	   R_ground_torque_x	   R_ground_torque_y	   R_ground_torque_z	
          1.56000000	          0.00000000	          0.00000000	         -0.00000000	         -0.00000000	          0.00000000	         -0.00000000	         18.63113248	        660.80008151	        -11.49881915	         -0.17026127	          0.00000000	          0.34587223	          0.00000000	          0.00000000	          0.00000000	          0.00000000	          2.71781228	          0.00000000	
          1.56500000	          0.00000000	         -0.00000000	          0.00000000	         -0.00000000	          0.00000000	         -0.00000000	         20.28114818	        670.80220905	        -11.47034312	         -0.16800846	          0.00000000	          0.34547284	          0.00000000	          0.00000000	          0.00000000	          0.00000000	          2.74051266	          0.00000000	
          1.57000000	          0.00000000	         -0.00000000	          0.00000000	         -0.00000000	          0.00000000	         -0.00000000	         22.00002287	        680.65408819	        -11.68462954	         -0.16562096	          0.00000000	          0.34521188	          0.00000000	          0.00000000	          0.00000000	          0.00000000	          2.76582908	          0.00000000	
          1.57500000	         -0.00000000	         -0.00000000	          0.00000000	          0.00000000	          0.00000000	          0.00000000	         23.89729785	        689.96731974	        -12.14273071	         -0.16310916	          0.00000000	          0.34512091	          0.00000000	         -0.00000000	          0.00000000	          0.00000000	          2.74150568	          0.00000000	
          1.58000000	         -0.00000000	          0.00000000	         -0.00000000	          0.00000000	          0.00000000	          0.00000000	         25.96105741	        699.01198689	        -12.86329972	         -0.16082292	          0.00000000	          0.34502819	          0.00000000	         -0.00000000	          0.00000000	          0.00000000	          2.59627073	          0.00000000	
          1.58500000	         -0.00000000	          0.00000000	         -0.00000000	          0.00000000	          0.00000000	          0.00000000	         28.15162340	        708.30669962	        -13.79970706	         -0.15882327	          0.00000000	          0.34468586	          0.00000000	         -0.00000000	          0.00000000	          0.00000000	          2.39154779	          0.00000000	
          1.59000000	          0.00000000	          0.00000000	         -0.00000000	         -0.00000000	          0.00000000	         -0.00000000	         30.62452834	        717.55742245	        -14.76059042	         -0.15683307	          0.00000000	          0.34439987	          0.00000000	          0.00000000	          0.00000000	          0.00000000	          2.16262478	          0.00000000	
          1.59500000	          0.00000000	         -0.00000002	          0.00000000	         -0.00000000	          0.00000000	         -0.00000000	         33.42719948	        726.37814553	        -15.44090174	         -0.15492317	          0.00000000	          0.34422455	          0.00000000	          0.00000000	          0.00000000	          0.00000000	          1.96325152	          0.00000000	
          1.60000000	          0.00000000	         -0.00000007	          0.00000000	         -0.00000000	          0.00000000	         -0.00000000	         36.59772270	        734.91617078	        -15.82130463	         -0.15315201	          0.00000000	          0.34413150	          0.00000000	          0.00000000	          0.00000000	          0.00000000	          1.83458724	          0.00000000	
          1.60500000	         -0.00000001	         -0.00000001	          0.00000000	          0.00000000	          0.00000000	          0.00000000	         40.24125967	        743.55396203	        -15.92476556	         -0.15157043	          0.00000000	          0.34398561	          0.00000000	         -0.00000000	          0.00000000	          0.00000000	          1.72420603	          0.00000000	
          1.61000000	         -0.00000005	          0.00000059	         -0.00000004	          0.00000000	          0.00000000	          0.00000000	         44.16511900	        752.02710763	        -15.51360129	         -0.15003522	          0.00000000	          0.34353384	          0.00000000	         -0.00000000	          0.00000000	          0.00000000	          1.69319069	          0.00000000	
          1.61500000	         -0.00000001	          0.00000164	         -0.00000011	         -0.00000000	          0.00000000	         -0.00000000	         48.18228143	        760.14757265	        -14.53898637	         -0.14857698	          0.00000000	          0.34304241	          0.00000000	         -0.00000000	          0.00000000	          0.00000000	          1.73802652	          0.00000000	
          1.62000000	          0.00000046	         -0.00000119	          0.00000007	         -0.00000002	          0.00000000	         -0.00000002	         52.39460628	        767.70204338	        -13.32890964	         -0.14735400	          0.00000000	          0.34282614	          0.00000000	          0.00000001	          0.00000000	          0.00000000	          1.71657054	          0.00000000	
          1.62500000	          0.00000125	         -0.00001821	          0.00000123	         -0.00000004	          0.00000000	         -0.00000004	         56.92982128	        774.80107277	        -12.04266077	         -0.14636319	          0.00000000	          0.34266962	          0.00000000	          0.00000002	          0.00000000	          0.00000000	          1.68050868	          0.00000000	
          1.63000000	         -0.00000100	         -0.00003624	          0.00000253	          0.00000009	          0.00000000	          0.00000008	         61.81284510	        781.18888263	        -10.64110722	         -0.14540542	          0.00000000	          0.34255212	          0.00000000	         -0.00000002	          0.00000000	          0.00000000	          1.70083652	          0.00000000	
          1.63500000	         -0.00001414	          0.00007374	         -0.00000473	          0.00000063	          0.00000000	          0.00000055	         66.84307837	        786.77511473	         -9.05866179	         -0.14465140	          0.00000000	          0.34239900	          0.00000000	         -0.00000023	          0.00000000	          0.00000000	          1.74162677	          0.00000000	
          1.64000000	         -0.00002745	          0.00052532	         -0.00003558	          0.00000082	          0.00000000	          0.00000067	         71.76354228	        791.78344812	         -7.22500891	         -0.14405320	          0.00000000	          0.34187661	          0.00000000	         -0.00000045	          0.00000000	          0.00000000	          1.88111481	          0.00000000	
